{"accessors":[{"bufferView":2,"componentType":5126,"count":34451,"max":[31.43937873840332,16.50621795654297,9.217135429382324],"min":[-31.439376831054688,-16.50621795654297,-9.21713638305664],"type":"VEC3"},{"bufferView":2,"byteOffset":413412,"componentType":5126,"count":34451,"max":[1,1,1],"min":[-1,-1,-1],"type":"VEC3"},{"bufferView":3,"componentType":5126,"count":34451,"max":[1,1,1,1],"min":[-1,-1,-1,1],"type":"VEC4"},{"bufferView":1,"componentType":5126,"count":34451,"max":[1.0000001192092896,0.9992563724517822],"min":[0,0],"type":"VEC2"},{"bufferView":1,"byteOffset":275608,"componentType":5126,"count":34451,"max":[1.0000001192092896,0.9992563724517822],"min":[0,0],"type":"VEC2"},{"bufferView":0,"componentType":5125,"count":62784,"type":"SCALAR"}],"asset":{"extras":{"author":"RyanTree (https://sketchfab.com/x88665577)","license":"CC-BY-4.0 (http://creativecommons.org/licenses/by/4.0/)","source":"https://sketchfab.com/3d-models/truss-asset-f3085c3380c6477f9d4f79855c5bb13d","title":"TRUSS_ASSET"},"generator":"Sketchfab-13.53.0","version":"2.0"},"bufferViews":[{"buffer":0,"byteLength":251136,"name":"floatBufferViews","target":34963},{"buffer":0,"byteLength":551216,"byteOffset":251136,"byteStride":8,"name":"floatBufferViews","target":34962},{"buffer":0,"byteLength":826824,"byteOffset":802352,"byteStride":12,"name":"floatBufferViews","target":34962},{"buffer":0,"byteLength":551216,"byteOffset":1629176,"byteStride":16,"name":"floatBufferViews","target":34962}],"buffers":[{"byteLength":2180392,"uri":"data:application/octet-stream;base64,"}],"images":[{"uri":"data:application/octet-stream;base64,"}],"materials":[{"doubleSided":true,"name":"iron","normalTexture":{"index":0},"pbrMetallicRoughness":{"baseColorFactor":[0.21404114048223255,0.21404114048223255,0.21404114048223255,1],"roughnessFactor":0.07049808429118774}}],"meshes":[{"name":"Cube.004_iron_0","primitives":[{"attributes":{"NORMAL":1,"POSITION":0,"TANGENT":2,"TEXCOORD_0":3,"TEXCOORD_1":4},"indices":5,"material":0,"mode":4}]}],"nodes":[{"children":[1],"matrix":[1,0,0,0,0,2.220446049250313e-16,-1,0,0,1,2.220446049250313e-16,0,0,0,0,1],"name":"Sketchfab_model"},{"children":[2],"matrix":[0.009999999776482582,0,0,0,0,0,0.009999999776482582,0,0,-0.009999999776482582,0,0,0,0,0,1],"name":"cd7c726438b14c5ca00a98504fcb626d.fbx"},{"children":[3],"name":"RootNode"},{"children":[4],"matrix":[131.15374755859375,0,0,0,0,-0.000021367657657030844,-131.15374755859202,0,0,131.15374755859202,-0.000021367657657030844,0,462.29705810546875,1165.6705322265625,-47.17160415649414,1],"name":"Cube.004"},{"mesh":0,"name":"Cube.004_iron_0"}],"samplers":[{"magFilter":9729,"minFilter":9987,"wrapS":10497,"wrapT":10497}],"scene":0,"scenes":[{"name":"Sketchfab_Scene","nodes":[0]}],"textures":[{"sampler":0,"source":0}]}